<svg width="115" height="19" viewBox="0 0 115 19" fill="none" xmlns="http://www.w3.org/2000/svg">
<path d="M5.856 3.456H0.288V0.912H14.568V3.456H8.976V18H5.856V3.456ZM21.8509 5.592C22.3149 5.592 22.7149 5.656 23.0509 5.784L23.0269 8.52C22.5149 8.312 21.9869 8.208 21.4429 8.208C20.4189 8.208 19.6349 8.504 19.0909 9.096C18.5629 9.688 18.2989 10.472 18.2989 11.448V18H15.3229V9.312C15.3229 8.032 15.2589 6.888 15.1309 5.88H17.9389L18.1789 8.016C18.4829 7.232 18.9629 6.632 19.6189 6.216C20.2749 5.8 21.0189 5.592 21.8509 5.592ZM36.809 5.88V18H33.857V16.056C33.489 16.728 32.961 17.256 32.273 17.64C31.585 18.008 30.801 18.192 29.921 18.192C28.865 18.192 27.929 17.936 27.113 17.424C26.297 16.912 25.665 16.184 25.217 15.24C24.769 14.296 24.545 13.2 24.545 11.952C24.545 10.704 24.769 9.6 25.217 8.64C25.681 7.664 26.321 6.912 27.137 6.384C27.953 5.84 28.881 5.568 29.921 5.568C30.801 5.568 31.585 5.76 32.273 6.144C32.961 6.512 33.489 7.032 33.857 7.704V5.88H36.809ZM30.737 15.84C31.729 15.84 32.497 15.496 33.041 14.808C33.585 14.12 33.857 13.152 33.857 11.904C33.857 10.624 33.585 9.64 33.041 8.952C32.497 8.264 31.721 7.92 30.713 7.92C29.721 7.92 28.945 8.28 28.385 9C27.841 9.704 27.569 10.688 27.569 11.952C27.569 13.2 27.841 14.16 28.385 14.832C28.945 15.504 29.729 15.84 30.737 15.84ZM46.3024 18.192C45.0384 18.192 43.9424 17.936 43.0144 17.424C42.0864 16.912 41.3744 16.192 40.8784 15.264C40.3824 14.32 40.1344 13.216 40.1344 11.952C40.1344 10.688 40.3904 9.576 40.9024 8.616C41.4304 7.656 42.1664 6.912 43.1104 6.384C44.0704 5.84 45.1744 5.568 46.4224 5.568C47.2864 5.568 48.1184 5.704 48.9184 5.976C49.7344 6.248 50.3824 6.624 50.8624 7.104L50.0224 9.216C49.5104 8.8 48.9664 8.488 48.3904 8.28C47.8144 8.056 47.2464 7.944 46.6864 7.944C45.5984 7.944 44.7504 8.288 44.1424 8.976C43.5344 9.648 43.2304 10.624 43.2304 11.904C43.2304 13.184 43.5264 14.16 44.1184 14.832C44.7264 15.504 45.5824 15.84 46.6864 15.84C47.2464 15.84 47.8144 15.728 48.3904 15.504C48.9664 15.28 49.5104 14.96 50.0224 14.544L50.8624 16.656C50.3504 17.136 49.6864 17.512 48.8704 17.784C48.0544 18.056 47.1984 18.192 46.3024 18.192ZM61.8867 18L56.5827 12.408V18H53.6067V0.335999H56.5827V11.232L61.5747 5.904H65.1987L59.7507 11.688L65.6307 18H61.8867Z" fill="white"/>
<path d="M67.7714 0.912H70.8674V15.456H78.8594V18H67.7714V0.912ZM81.7151 5.88H84.6911V18H81.7151V5.88ZM84.8591 0.383999V3.336H81.5231V0.383999H84.8591ZM95.6389 5.568C98.5349 5.568 99.9829 7.232 99.9829 10.56V18H96.9829V10.704C96.9829 9.744 96.7989 9.048 96.4309 8.616C96.0629 8.168 95.4949 7.944 94.7269 7.944C93.8149 7.944 93.0789 8.24 92.5189 8.832C91.9589 9.408 91.6789 10.176 91.6789 11.136V18H88.7029V9.312C88.7029 8.032 88.6389 6.888 88.5109 5.88H91.3189L91.5349 7.872C91.9509 7.136 92.5109 6.568 93.2149 6.168C93.9349 5.768 94.7429 5.568 95.6389 5.568ZM114.502 12.096H106.15C106.214 13.392 106.534 14.352 107.11 14.976C107.702 15.584 108.574 15.888 109.726 15.888C111.054 15.888 112.286 15.456 113.422 14.592L114.286 16.656C113.71 17.12 112.998 17.496 112.15 17.784C111.318 18.056 110.47 18.192 109.606 18.192C107.622 18.192 106.062 17.632 104.926 16.512C103.79 15.392 103.222 13.856 103.222 11.904C103.222 10.672 103.47 9.576 103.966 8.616C104.462 7.656 105.158 6.912 106.054 6.384C106.95 5.84 107.966 5.568 109.102 5.568C110.766 5.568 112.078 6.112 113.038 7.2C114.014 8.272 114.502 9.752 114.502 11.64V12.096ZM109.174 7.728C108.374 7.728 107.718 7.968 107.206 8.448C106.71 8.912 106.39 9.592 106.246 10.488H111.886C111.79 9.576 111.51 8.888 111.046 8.424C110.598 7.96 109.974 7.728 109.174 7.728Z" fill="#FF8B41"/>
</svg>
